<?xml version="1.0" encoding="utf-8"?>
<!-- Generator: Adobe Illustrator 16.0.4, SVG Export Plug-In . SVG Version: 6.00 Build 0)  -->
<!DOCTYPE svg PUBLIC "-//W3C//DTD SVG 1.1//EN" "http://www.w3.org/Graphics/SVG/1.1/DTD/svg11.dtd">
<svg version="1.1" id="Ebene_1" xmlns="http://www.w3.org/2000/svg" xmlns:xlink="http://www.w3.org/1999/xlink" x="0px" y="0px"
	 width="180px" height="116.1px" viewBox="0 0 180 116.1" enable-background="new 0 0 180 116.1" xml:space="preserve">
<path fill="#004179" d="M50.6,14.4c2.2,0,4.4-0.1,6.6-0.1c3,0.1,5.9,0.3,8.9,0.6c-0.2-1.7-0.2-2.1,0.3-3.7
	c-4.5,0.2-8.9,0.5-13.4,0.5c-2.8,0-5.7-0.2-8.6-0.3c0.6,4,0.5,0.8,0.5,3.1L50.6,14.4z"/>
<path fill="#004179" d="M66.5,50c0-0.7,0.1-1.4,0.2-1.7c-1.7,0.1-3.4,0.2-5.2,0.2c-3.7,0.1-7.4,0.1-11.1,0.1v-17
	c1.2-0.1,2.4-0.2,3.6-0.2c1.1,0,2.2,0.1,3.3,0.1c1.6,0.1,3.1,0.1,4.6,0.2c0.9,0.1,1.9,0.2,2.8,0.3c-0.2-1.7-0.2-2.1,0.1-3.7
	c-1.3,0.1-2.7,0.3-4.1,0.4c-0.9,0.1-1.8,0.1-2.7,0.1c-2.5,0-11.5,0-13.5,0c0,3.6,0.2,5.6,0.1,9.2c0,1.7,0,3.3-0.1,5
	c0,1.3,0.1,2.7,0,4c-0.1,1.6-0.2,3.1-0.3,4.7c3-0.1,5.8-0.2,8.8-0.2c4.6,0,9.1,0.2,13.6,0.4C66.6,50.8,66.5,50.6,66.5,50"/>
<path fill="#004179" d="M78.2,34.1c0,4.8,0.1,9.5,0.2,14.3c9.4,0.1,11.1-0.1,16.6-0.7c-0.1,1.3-0.2,1.7-0.1,3.9
	c-4-0.2-7.9-0.3-11.9-0.3c-3.7,0-7.4,0.2-11.1,0.5c0.2-1.7,0.3-3.3,0.4-5c0.1-2.3,0.1-4.6,0.1-6.9c0.1-2.9,0.1-5.7,0.1-8.6
	c0-6.7-0.2-13.4-0.4-20.1c0.1,0,2,0.2,3.2,0.2c0.8,0,1.7-0.1,3.4-0.3c-0.3,2.5-0.5,5-0.5,7.5c-0.1,2.4,0,4.7-0.1,7.1V34.1z"/>
<path fill="#004179" d="M106.2,20.3c-0.1,2.2-0.1,4.3-0.1,6.4c0,3.9,0.1,7.8,0.1,11.7c0,2.8,0,5.5,0.2,8.2c0.1,1.7,0.3,3.4,0.5,5.1
	c-1.2-0.1-2.3-0.2-3.5-0.2c-1,0-1.6,0.1-3.5,0.3c0.2-3.2,0.4-6.4,0.4-9.7c0.1-3.5,0.1-7,0.1-10.5c0-2.1,0.1-4.3,0.1-6.4
	c0-3.3-0.1-6.7-0.3-10c-0.1-1.3-0.2-2.6-0.3-3.9c1.8,0.2,2.4,0.3,3.4,0.3c1.3,0,2.1-0.1,3.4-0.2C106.5,14.2,106.3,17.3,106.2,20.3"
	/>
<path fill="#004179" d="M142.4,13.3c0,0.6,0.1,0.9,0.3,2c-2.2-0.5-3-0.5-6.7-0.6c-2,0-4-0.1-6-0.1c-0.1,3-0.2,6-0.2,9.1
	c0,3.5,0.1,7.1,0.1,10.6c-0.1,3.5-0.1,7.1,0.1,10.6c0.1,2.3,0.2,4.5,0.3,6.8c-2-0.3-2.6-0.3-3.6-0.3c-1,0-1.3,0.1-3,0.2
	c0.2-6.7,0.4-13.4,0.5-20.1c0-5.6-0.1-11.2-0.1-16.8c-2.5,0-5,0-7.6,0.1c-1.9,0.1-3.8,0.3-5.7,0.5c0.1-0.5,0.2-1.3,0.2-1.8
	c0-0.6-0.1-1-0.3-2.2c2,0.2,4.1,0.3,6.1,0.5c2.1,0.1,4.3,0.1,6.4,0.1c2.8,0,5.6,0,8.3-0.1c2.1,0,4.3-0.1,6.4-0.2
	c1.7-0.1,3.4-0.3,5-0.5C142.8,11.2,142.4,12.3,142.4,13.3"/>
<path fill="#004179" d="M170.8,51.7c-1-1.8-2-3.7-2.9-5.6c-1.1-2.4-2.1-4.8-3.1-7.2c-1.3-3-2.7-6-4.1-9.1c-1.2-2.7-2.4-5.5-3.6-8.2
	c-0.9-2-1.9-3.8-2.8-5.7c-0.7-1.5-1.3-3.2-1.9-4.8l-2.7-0.1c-0.9,2.4-2.2,5.2-1.8,4.3l8.1,18.2h-13.1c0.4-0.9-1.5,3.8-1.2,3
	c2.8-0.1,5.6-0.2,8.5-0.2c2.4,0,4.7,0.1,7.1,0.1c3.9,8.6,4.4,10.3,6.1,15.5c1.9-0.3,2.8-0.5,3.7-0.5
	C168.1,51.3,168.9,51.4,170.8,51.7"/>
<path fill="#004179" d="M39,34.3c0.2-0.4,0.4-0.7,0.5-1.2c-4.5,0.2-4.9,0.5-9.5,0.5c-2.8,0-5.7-0.2-8.6-0.3c0.6,4,0.5,0.8,0.5,3.1
	l5.7,0c1.7,0,3.4,0,5.1,0c0.1,1,0.2,1.5,0.3,2.9c0.1,2.9,0,5.8-0.1,8.7c-3.2,1.3-5.6,2.2-9.1,2.2c-2.6,0-9.1-0.6-13.6-6.7
	c-3.4-4.8-3.5-10.7-3.5-12.5c0-10,5.3-14.4,9.1-16.2c3.2-1.5,6.4-1.7,7.6-1.7c5.6,0,9.1,2.3,10.8,3.8c0.9,0.7,1.4,1.4,2.1,2.2H37
	c0.6-3.1,0.9-3.6,1.6-5.3c-3.3-1.3-7.2-3-15-3c-6.8,0-10.6,1.4-13.3,2.9c-2.7,1.4-4.1,2.8-5,3.7c-1.3,1.3-2,2.5-2.4,3
	c-1.2,1.9-3,5.5-3,11.1c0,6.7,2.4,10.9,3.9,13c1.6,2.1,3.6,3.7,4.4,4.2c4,2.9,7.8,3.5,9.6,3.8c1.9,0.2,3.6,0.2,4.2,0.2
	c6.3,0,10.4-1.4,16.4-3.5C38.4,40.7,38.6,38.8,39,34.3"/>
<path fill="#004179" d="M171.9,15.6c0.2,0,0.4,0,0.6,0c0.5,0,1-0.2,1.3-0.7c0-0.1,0.1-0.3,0.1-0.6c0-0.2-0.1-0.8-0.6-1
	c-0.3-0.1-0.6-0.2-1.2-0.2c-0.1,0-0.3,0-0.5,0h-1.1v2.5H171.9z M173.7,21c-0.4-0.8-0.4-1.6-0.5-2.4c-0.1-0.8-0.3-1.2-0.7-1.4
	c-0.4-0.2-0.6-0.2-1.4-0.3h-0.6V21h-1.7v-9.2h3c1.1,0,2.4-0.1,3.2,0.9c0.2,0.2,0.5,0.7,0.5,1.4c0,0.5-0.1,1.4-1.3,2
	c-0.1,0.1-0.3,0.1-0.7,0.2c0.3,0.1,0.5,0.2,0.6,0.3c0.7,0.5,0.7,1.4,0.9,2.2c0.2,1.1,0.4,1.7,0.6,2.2L173.7,21z M177.4,12.5
	c-0.7-0.9-2.4-2.7-5.4-2.7c-0.7,0-2.4,0.1-4,1.3c-0.9,0.6-2.8,2.4-2.8,5.4c0,0.9,0.2,1.7,0.5,2.5c1,2.5,3.5,4.1,6.2,4.1
	c0.4,0,1.2,0,2.3-0.4c2.7-0.9,4.4-3.5,4.4-6.3C178.7,15.8,178.6,14.1,177.4,12.5 M177.6,21.2c-1.9,2.3-4.6,2.6-5.6,2.6
	c-1.6,0-3.2-0.5-4.5-1.5c-0.9-0.7-2.9-2.6-2.9-5.8c0-2.4,1.1-4,1.7-4.7c0.8-0.9,2.6-2.6,5.7-2.6c2.3,0,4.5,1,5.9,2.9
	c1,1.3,1.4,2.8,1.4,4.4C179.3,17.4,179.2,19.4,177.6,21.2"/>
<path fill="#F7A600" d="M67.8,63.4c0.1,0.8,0.1,1.7,0.2,2.5c0.1,1.3,0.4,2.6,0.5,3.9c0.3,2,0.5,4,0.8,5.9c0.2,1.2,0.4,2.5,0.5,3.7
	c0.2,1.1,0.3,2.2,0.5,3.3c0.1,0.7,0.3,1.4,0.5,2.1c-1-0.2-1.4-0.3-2-0.3c-0.5,0-0.8,0-1.7,0.2c-0.1-2.2-0.3-4.4-0.5-6.6
	c-0.3-3.1-0.7-6.2-1.1-9.3c-2.1,4-4.2,8.1-6.2,12.1c-0.3,0.7-0.6,1.3-0.9,1.9c-0.3,0.6-0.5,1.3-0.8,1.9h-0.9
	c-0.7-1.6-1.4-3.1-2.2-4.7c-0.9-1.7-1.9-3.4-2.8-5.1c-1.1-2-2.2-4-3.3-5.9c-0.2,1.9-0.4,3.8-0.6,5.7c-0.2,1.7-0.4,3.4-0.5,5.1
	c-0.1,1.6-0.2,3.3-0.3,4.9c-0.2-0.1-0.8-0.2-1.4-0.2c-0.4,0-0.5,0-1.1,0.1c0.3-1.3,0.5-2.5,0.8-3.8c1-5.8,1.7-11.6,2.4-17.5
	c0.4,0,0.5,0.1,1.2,0c0.4,0.8,0.8,1.7,1.2,2.5c0.7,1.3,1.4,2.5,2,3.7c1,1.9,2,3.7,3,5.5c0.9,1.6,1.9,3.2,2.8,4.8
	c0.4-0.7,0.8-1.3,1.2-2.1c0.8-1.3,1.4-2.8,2.2-4.1c0.9-1.7,1.8-3.4,2.7-5.2c0.9-1.7,1.7-3.4,2.6-5.1H67.8z"/>
<path fill="#F7A600" d="M91.8,65.1c-0.1,2.4-0.1,4.9-0.1,7.3c0,2.1,0.1,4.2,0,6.3c0,0.9,0,1.9,0,2.8c0,0.5,0.1,1.1,0.1,1.6
	c0.9,0.1,1.8,0.1,2.7,0.2c0.6,0,1.2,0,1.7,0c0.6,0,1.2,0,1.8-0.1c2.3-0.2,4.2-1,5.7-2.7c2.1-2.5,2.1-5.7,2.1-6.7
	c0-0.5,0-1.5-0.3-2.8c-0.3-1.1-1.2-4.1-4.4-5.3c-1.1-0.4-2-0.6-4.2-0.7L91.8,65.1z M98.5,63.6l1.4,0.1c1,0.1,3.7,0.3,6,2.2
	c1.3,1.1,3.4,3.5,3.4,7.9c0,4.2-1.8,6.6-3,7.8c-0.6,0.6-1.9,1.8-4,2.5c-1.7,0.6-3.6,0.7-4.1,0.7c-0.9,0-1.8,0.1-2.7,0.1
	c-1.3,0-2.5-0.1-3.8-0.1c-1.1,0-2.1,0-3.2,0c0.2-1.6,0.2-3.3,0.3-4.9c0.1-1.9,0.1-3.7,0.1-5.5c0-1.9,0-3.8-0.1-5.7
	c0-1.6-0.1-3.3-0.2-4.9c1.1,0.1,2.1,0.1,3.2,0.1c1.5,0,3-0.1,4.5-0.1H98.5z"/>
<path fill="#F7A600" d="M115.5,68.5c0,1.1,0,2.2,0,3.3c0,2,0,4.1,0.1,6.1c0,1.4,0,2.8,0.1,4.2c0.1,0.9,0.2,1.8,0.2,2.6
	c-0.6-0.1-1.2-0.1-1.8-0.1c-0.5,0-0.8,0-1.8,0.1c0.1-1.7,0.2-3.3,0.2-5c0-1.8,0-3.6,0-5.5c0-1.1,0-2.2,0-3.3c0-1.7,0-3.5-0.2-5.2
	c0-0.7-0.1-1.4-0.2-2c0.9,0.1,1.2,0.1,1.8,0.1c0.7,0,1.1-0.1,1.7-0.1C115.6,65.3,115.6,66.9,115.5,68.5"/>
<path fill="#F7A600" d="M137.4,67.6c-0.4-0.5-0.9-1-1.4-1.5c-0.9-0.8-2.6-1.7-5.4-1.7c-1.1,0-3.2,0.1-5.2,1.9
	c-1.2,1.1-2.8,3.3-2.8,7.4c0,0.9,0.1,3.9,1.7,6.4c0.9,1.3,2.9,3.5,6.9,3.5c0.4,0,1.3,0,2.4-0.3c2-0.5,3-1.4,4.6-2.8l0.4,0.2
	c-0.3,1-0.3,1.1-0.3,2.1c-0.1,0.1-1,0.7-1.7,1c-1,0.5-3.1,1.2-6,1.2c-5,0-7.8-2.2-9.2-3.9c-0.9-1.1-2.2-3.4-2.2-7.1
	c0-0.9,0.1-3.1,1.1-5.3c2-4,6.4-5.6,10.7-5.6c3.7,0,6.2,1,7.6,1.6c-0.4,1.3-0.5,1.6-0.6,2.9H137.4z"/>
<path fill="#F7A600" d="M163.1,75.7c0,2.5,0,5,0.1,7.4c4.9,0.1,5.8-0.1,8.6-0.4c-0.1,0.7-0.1,0.9,0,2c-2.1-0.1-4.1-0.2-6.2-0.2
	c-1.9,0-3.8,0.1-5.7,0.2c0.1-0.9,0.2-1.7,0.2-2.6c0-1.2,0-2.4,0-3.6c0-1.5,0.1-3,0.1-4.5c0-3.5-0.1-7-0.2-10.5c0.1,0,1,0.1,1.7,0.1
	c0.4,0,0.9-0.1,1.8-0.2c-0.2,1.3-0.2,2.6-0.2,3.9c0,1.2,0,2.4,0,3.7V75.7z"/>
<g>
	<rect y="0" fill="#004179" width="180.1" height="1.8"/>
</g>
<g>
	<line fill="#004179" x1="0" y1="94.4" x2="180.1" y2="94.4"/>
	<rect y="93.5" fill="#004179" width="180.1" height="1.8"/>
</g>
<path fill="#F7A600" d="M77,64.9c1.2,0,2.3,0,3.5,0c1.6,0,3.1,0.2,4.7,0.3c-0.1-0.9-0.1-1.1,0.2-2c-2.4,0.1-4.7,0.3-7.1,0.3
	c-1.5,0-3-0.1-4.5-0.2c0.3,2.1,0.3,0.4,0.3,1.6L77,64.9z"/>
<path fill="#F7A600" d="M85.5,83.7c0-0.4,0.1-0.7,0.1-0.9c-0.9,0-1.8,0.1-2.7,0.1C80.9,83,78.9,83,77,83v-9c0.6-0.1,1.3-0.1,1.9-0.1
	c0.6,0,1.2,0,1.7,0c0.8,0,1.6,0,2.4,0.1c0.5,0,1,0.1,1.5,0.2c-0.1-0.9-0.1-1.1,0.1-2c-0.7,0.1-1.4,0.2-2.1,0.2c-0.5,0-0.9,0-1.4,0
	c-1.3,0-6.1,0-7.1,0c0,1.9,0.1,3,0.1,4.9c0,0.9,0,1.8,0,2.6c0,0.7,0,1.4,0,2.1c0,0.9-0.1,1.6-0.2,2.5c1.6-0.1,3.1-0.1,4.7-0.1
	c2.4,0,4.8,0.1,7.2,0.2C85.5,84.1,85.5,84.1,85.5,83.7"/>
<path fill="#F7A600" d="M158.5,84.6c-0.5-1-1-1.9-1.5-3c-0.6-1.2-1.1-2.6-1.7-3.8c-0.7-1.6-1.4-3.2-2.2-4.8
	c-0.6-1.4-1.3-2.9-1.9-4.3c-0.5-1-1-2-1.5-3c-0.4-0.8-0.7-1.7-1-2.5l-1.4,0c-0.5,1.2-1.2,2.7-0.9,2.3l4.3,9.6h-6.9
	c0.2-0.5-0.8,2-0.6,1.6c1.5-0.1,3-0.1,4.5-0.1c1.3,0,2.5,0,3.8,0.1c2.1,4.5,2.3,5.4,3.2,8.2c1-0.2,1.5-0.2,2-0.2
	C157,84.4,157.4,84.4,158.5,84.6"/>
<path fill="#004179" d="M177.9,111.8c0-0.4-0.3-0.7-0.6-0.7c-0.4,0-0.6,0.3-0.6,0.7c0,0.4,0.2,0.7,0.6,0.7
	C177.6,112.5,177.9,112.2,177.9,111.8 M179.4,102.1h-1l-1.2,8h0.7L179.4,102.1z M174.6,106.7c0,1-1,1.5-3.3,1.6
	c0.3-1.4,1.1-2.5,2.3-2.5C174.2,105.7,174.6,106.1,174.6,106.7 M175.5,106.6c0-0.9-0.6-1.6-1.8-1.6c-2.3,0-3.5,2.6-3.5,5.2
	c0,1.7,0.7,2.3,2.1,2.3c0.8,0,1.5-0.2,2.1-0.4v-0.8c-0.5,0.3-1.2,0.4-1.8,0.4c-1.1,0-1.5-0.3-1.5-1.7c0-0.3,0-0.8,0.1-1
	C174.1,108.9,175.5,108,175.5,106.6 M171.7,101.8c-0.4-0.1-0.7-0.1-1.1-0.1c-1.6,0-2.6,1-2.9,3l-0.1,0.5h-1.5l-0.1,0.7h1.5l-1.2,7
	c-0.3,1.9-0.9,2.5-2,2.5c-0.3,0-0.7,0-1-0.2l-0.2,0.8c0.4,0.1,0.7,0.1,1.1,0.1c1.6,0,2.5-0.9,2.9-3.3l1.2-7h1.9l0.1-0.7h-2l0.1-0.5
	c0.2-1.6,0.9-2.2,1.9-2.2c0.3,0,0.7,0,1,0.1L171.7,101.8z M164.1,105.9l-0.1,0.7c-0.3,1.9-1.8,5.2-3.2,5.2c-0.5,0-0.8-0.4-0.8-1.6
	c0-2,0.8-4.5,3.1-4.5C163.4,105.7,163.8,105.8,164.1,105.9 M165,105.2c-0.5-0.1-1.2-0.2-1.9-0.2c-2.8,0-4,2.7-4,5.3
	c0,1.5,0.5,2.2,1.4,2.2c1.8,0,2.8-2.4,3.2-3.6l0,0c-0.4,1.6-0.7,2.7-0.9,3.4h0.8C164,110.8,164.2,109.8,165,105.2 M158.4,102.5
	c-0.5-0.1-0.8-0.1-1.2-0.1c-2,0-3.1,1.3-3.1,2.8c0,2.4,2.8,2.4,2.8,4.3c0,1.3-0.9,2.2-2.4,2.2c-0.4,0-1-0.1-1.3-0.3l-0.2,0.9
	c0.4,0.1,0.9,0.2,1.4,0.2c2,0,3.4-1.3,3.4-3.1c0-2.3-2.8-2.4-2.8-4.4c0-0.9,0.7-1.9,2.1-1.9c0.3,0,0.8,0,1.2,0.2L158.4,102.5z
	 M150.1,105.1l-0.8-0.3c-1.2,3.1-2.1,5.3-3.3,7.5h0c0.1-0.4,0.1-0.8,0.1-1.1c0-1.6-0.3-4-0.8-6.1h-0.9c0.6,2.3,0.9,4.7,0.9,6.6
	c0,1.2-0.2,1.9-0.8,2.7c-0.5,0.6-1.1,1-1.6,1c-0.3,0-0.6,0-0.8-0.1l-0.2,0.9c0.3,0.1,0.6,0.1,0.9,0.1c0.7,0,1.5-0.5,2.2-1.3
	C146.7,113,148.5,109.3,150.1,105.1 M143.7,101.7h-0.8l-1.8,10.7h0.8L143.7,101.7z M139.3,106.7c0,1-1,1.5-3.3,1.6
	c0.3-1.4,1.1-2.5,2.3-2.5C138.9,105.7,139.3,106.1,139.3,106.7 M140.1,106.6c0-0.9-0.6-1.6-1.8-1.6c-2.3,0-3.5,2.6-3.5,5.2
	c0,1.7,0.7,2.3,2.1,2.3c0.8,0,1.5-0.2,2.1-0.4v-0.8c-0.5,0.3-1.2,0.4-1.8,0.4c-1.1,0-1.5-0.3-1.5-1.7c0-0.3,0-0.8,0.1-1
	C138.8,108.9,140.1,108,140.1,106.6 M134.4,105.1h-1.9l0.5-2.7l-0.9,0.2l-0.4,2.5h-1.5l-0.1,0.7h1.5l-0.7,4.4
	c-0.3,1.6,0,2.3,1.3,2.3c0.4,0,0.8-0.1,1.1-0.1l0-0.8c-0.3,0.1-0.6,0.1-1,0.1c-0.7,0-0.9-0.4-0.7-1.7l0.7-4.2h1.9L134.4,105.1z
	 M128.4,106.7c0,1-1,1.5-3.3,1.6c0.3-1.4,1.1-2.5,2.3-2.5C128,105.7,128.4,106.1,128.4,106.7 M129.2,106.6c0-0.9-0.6-1.6-1.8-1.6
	c-2.3,0-3.5,2.6-3.5,5.2c0,1.7,0.7,2.3,2.1,2.3c0.8,0,1.5-0.2,2.1-0.4v-0.8c-0.5,0.3-1.2,0.4-1.8,0.4c-1.1,0-1.5-0.3-1.5-1.7
	c0-0.3,0-0.8,0.1-1C127.9,108.9,129.2,108,129.2,106.6 M123.4,101.7h-0.8l-1.8,10.7h0.8L123.4,101.7z M118.9,107.3
	c0,2-0.8,4.4-3,4.4c-0.3,0-0.8-0.1-1.1-0.2l0.1-0.6c0.3-1.9,1.8-5.1,3.2-5.1C118.5,105.8,118.9,106.2,118.9,107.3 M119.7,107.2
	c0-1.5-0.5-2.2-1.4-2.2c-1.4,0-2.5,1.6-3.2,3.5l0,0c0.5-1.9,0.7-2.7,0.8-3.4H115l-1.9,11h0.8l0.6-3.7c0.3,0.1,0.7,0.1,1.1,0.1
	C118.5,112.5,119.7,109.8,119.7,107.2 M112.2,107.5c0.3-1.6-0.2-2.5-1.3-2.5c-1.4,0-2.5,1.7-3.1,3.4h0c0.3-0.9,0.4-1.5,0.4-2
	c0-0.9-0.4-1.4-1.3-1.4c-1.4,0-2.5,1.7-3.1,3.4l0,0c0.5-1.8,0.7-2.8,0.8-3.3h-0.8l-1.2,7.3h0.8l0.2-1.5c0.3-1.9,1.8-5.2,3.2-5.2
	c0.7,0,0.9,0.6,0.7,1.9l-0.8,4.7h0.8l0.2-1.5c0.3-1.9,1.8-5.2,3.2-5.2c0.7,0,0.9,0.6,0.7,1.9l-0.8,4.7h0.8L112.2,107.5z
	 M100.5,107.7c0,2.5-1.3,4.1-2.7,4.1c-1.1,0-1.6-0.7-1.6-2c0-2.1,1.1-4,2.7-4C100,105.8,100.5,106.4,100.5,107.7 M101.3,107.6
	c0-1.5-0.7-2.6-2.3-2.6c-2.1,0-3.7,2.1-3.7,5c0,1.7,0.8,2.6,2.3,2.6C99.5,112.5,101.3,110.6,101.3,107.6 M95.3,102.7
	c-0.6-0.2-1.2-0.3-2-0.3c-3.3,0-5,3.2-5,6.7c0,1.8,0.7,3.4,3.1,3.4c0.9,0,1.7-0.2,2.4-0.5l0-0.8c-0.7,0.3-1.4,0.6-2.2,0.6
	c-1.9,0-2.5-1.1-2.5-2.7c0-2.9,1.2-5.8,3.9-5.8c0.6,0,1.3,0.1,2,0.4L95.3,102.7z M82.9,111.8c0-0.4-0.2-0.7-0.6-0.7
	c-0.4,0-0.6,0.3-0.6,0.7c0,0.4,0.2,0.7,0.6,0.7C82.7,112.5,82.9,112.2,82.9,111.8 M84.4,102.1h-1l-1.2,8h0.7L84.4,102.1z
	 M79.7,106.7c0,1-1,1.5-3.3,1.6c0.3-1.4,1.1-2.5,2.3-2.5C79.3,105.7,79.7,106.1,79.7,106.7 M80.6,106.6c0-0.9-0.6-1.6-1.8-1.6
	c-2.3,0-3.5,2.6-3.5,5.2c0,1.7,0.7,2.3,2.1,2.3c0.8,0,1.5-0.2,2.1-0.4v-0.8c-0.5,0.3-1.2,0.4-1.8,0.4c-1.1,0-1.5-0.3-1.5-1.7
	c0-0.3,0-0.8,0.1-1C79.2,108.9,80.6,108,80.6,106.6 M75.2,105c-1.3-0.3-2.2,1.2-2.9,3.2l0,0c0.4-1.5,0.6-2.3,0.7-3h-0.8l-1.2,7.3
	h0.8l0.3-1.7c0.3-1.7,1.7-5.2,3-4.8L75.2,105z M68.8,105.9l-0.1,0.7c-0.3,1.9-1.8,5.2-3.2,5.2c-0.5,0-0.8-0.4-0.8-1.6
	c0-2,0.8-4.5,3.1-4.5C68.1,105.7,68.5,105.8,68.8,105.9 M69.7,105.2c-0.5-0.1-1.2-0.2-1.9-0.2c-2.8,0-4,2.7-4,5.3
	c0,1.5,0.5,2.2,1.4,2.2c1.8,0,2.8-2.4,3.2-3.6l0,0c-0.4,1.6-0.7,2.7-0.9,3.4h0.8C68.7,110.8,68.9,109.8,69.7,105.2 M63.7,102.7
	c-0.6-0.2-1.2-0.3-2-0.3c-3.3,0-5,3.2-5,6.7c0,1.8,0.7,3.4,3.1,3.4c0.9,0,1.7-0.2,2.4-0.5l0-0.8c-0.7,0.3-1.4,0.6-2.2,0.6
	c-1.9,0-2.5-1.1-2.5-2.7c0-2.9,1.2-5.8,3.9-5.8c0.6,0,1.3,0.1,2,0.4L63.7,102.7z M51.9,106.7c0,1-1,1.5-3.3,1.6
	c0.3-1.4,1.1-2.5,2.3-2.5C51.5,105.7,51.9,106.1,51.9,106.7 M52.8,106.6c0-0.9-0.6-1.6-1.8-1.6c-2.3,0-3.5,2.6-3.5,5.2
	c0,1.7,0.7,2.3,2.1,2.3c0.8,0,1.5-0.2,2.1-0.4v-0.8c-0.5,0.3-1.2,0.4-1.8,0.4c-1.1,0-1.5-0.3-1.5-1.7c0-0.3,0-0.8,0.1-1
	C51.4,108.9,52.8,108,52.8,106.6 M47.1,105.1h-1.9l0.5-2.7l-0.9,0.2l-0.4,2.5h-1.5l-0.1,0.7h1.5l-0.7,4.4c-0.3,1.6,0,2.3,1.3,2.3
	c0.4,0,0.8-0.1,1.1-0.1l0-0.8c-0.3,0.1-0.6,0.1-1,0.1c-0.7,0-0.9-0.4-0.7-1.7l0.7-4.2H47L47.1,105.1z M41.1,106.7c0,1-1,1.5-3.3,1.6
	c0.3-1.4,1.1-2.5,2.3-2.5C40.6,105.7,41.1,106.1,41.1,106.7 M41.9,106.6c0-0.9-0.6-1.6-1.8-1.6c-2.3,0-3.5,2.6-3.5,5.2
	c0,1.7,0.7,2.3,2.1,2.3c0.8,0,1.5-0.2,2.1-0.4v-0.8c-0.5,0.3-1.2,0.4-1.8,0.4c-1.1,0-1.5-0.3-1.5-1.7c0-0.3,0-0.8,0.1-1
	C40.5,108.9,41.9,108,41.9,106.6 M36.1,101.7h-0.8l-1.8,10.7h0.8L36.1,101.7z M31.5,107.3c0,2-0.8,4.4-3,4.4c-0.3,0-0.8-0.1-1.1-0.2
	l0.1-0.6c0.3-1.9,1.8-5.1,3.2-5.1C31.2,105.8,31.5,106.2,31.5,107.3 M32.3,107.2c0-1.5-0.5-2.2-1.4-2.2c-1.4,0-2.5,1.6-3.2,3.5l0,0
	c0.5-1.9,0.7-2.7,0.8-3.4h-0.8l-1.9,11h0.8l0.6-3.7c0.3,0.1,0.7,0.1,1.1,0.1C31.2,112.5,32.3,109.8,32.3,107.2 M24.8,107.5
	c0.3-1.6-0.2-2.5-1.3-2.5c-1.4,0-2.5,1.7-3.1,3.4h0c0.3-0.9,0.4-1.5,0.4-2c0-0.9-0.4-1.4-1.3-1.4c-1.4,0-2.5,1.7-3.1,3.4l0,0
	c0.5-1.8,0.7-2.8,0.8-3.3h-0.8l-1.2,7.3h0.8l0.2-1.5c0.3-1.9,1.8-5.2,3.2-5.2c0.7,0,0.9,0.6,0.7,1.9l-0.8,4.7h0.8l0.2-1.5
	c0.3-1.9,1.8-5.2,3.2-5.2c0.7,0,0.9,0.6,0.7,1.9l-0.8,4.7H24L24.8,107.5z M13.1,107.7c0,2.5-1.3,4.1-2.7,4.1c-1.1,0-1.6-0.7-1.6-2
	c0-2.1,1.1-4,2.7-4C12.6,105.8,13.1,106.4,13.1,107.7 M14,107.6c0-1.5-0.7-2.6-2.3-2.6c-2.1,0-3.7,2.1-3.7,5c0,1.7,0.8,2.6,2.3,2.6
	C12.2,112.5,14,110.6,14,107.6 M8,102.7c-0.6-0.2-1.2-0.3-2-0.3c-3.3,0-5,3.2-5,6.7c0,1.8,0.7,3.4,3.1,3.4c0.9,0,1.7-0.2,2.4-0.5
	l0-0.8c-0.7,0.3-1.4,0.6-2.2,0.6c-1.9,0-2.5-1.1-2.5-2.7c0-2.9,1.2-5.8,3.9-5.8c0.6,0,1.3,0.1,2,0.4L8,102.7z"/>
</svg>
